<?xml version="1.0" standalone="no"?>
<!DOCTYPE svg PUBLIC "-//W3C//DTD SVG 20010904//EN"
 "http://www.w3.org/TR/2001/REC-SVG-20010904/DTD/svg10.dtd">
<svg version="1.0" xmlns="http://www.w3.org/2000/svg"
 width="512.000000pt" height="512.000000pt" viewBox="0 0 512.000000 512.000000"
 preserveAspectRatio="xMidYMid meet">
<metadata>
Created by potrace 1.11, written by Peter Selinger 2001-2013
</metadata>
<g transform="translate(0.000000,512.000000) scale(0.100000,-0.100000)"
fill="#000000" stroke="none">
<path d="M1538 4335 c-2 -2 -16 -5 -33 -8 -28 -4 -98 -29 -420 -147 -71 -27
-165 -61 -208 -76 -47 -16 -84 -36 -92 -48 -8 -12 -30 -75 -49 -141 -20 -66
-56 -160 -82 -210 -25 -49 -63 -128 -84 -175 -21 -47 -51 -114 -68 -150 -194
-417 -394 -1015 -451 -1345 -5 -33 -13 -76 -16 -95 -3 -19 -8 -46 -10 -60 -21
-112 -28 -457 -11 -530 3 -14 9 -41 12 -60 29 -165 113 -324 221 -420 115
-102 193 -108 293 -25 50 42 147 125 164 140 6 6 56 48 111 95 55 47 102 87
105 90 14 15 410 350 443 374 50 38 145 82 220 103 56 15 153 16 947 17 487 0
910 -3 940 -7 103 -13 206 -54 286 -113 34 -25 360 -299 374 -314 31 -34 484
-411 508 -424 78 -40 152 -16 253 84 118 117 192 278 217 470 14 110 5 479
-13 533 -2 7 -6 28 -9 47 -3 19 -8 46 -11 60 -3 14 -8 41 -11 60 -14 95 -58
263 -129 495 -104 339 -250 701 -450 1110 -45 91 -86 195 -106 264 -18 62 -40
121 -48 131 -9 10 -117 55 -241 100 -124 45 -280 102 -347 126 -169 62 -197
62 -316 -7 -51 -29 -113 -64 -138 -76 l-46 -24 -684 3 -684 3 -136 72 c-116
61 -189 90 -201 78z"/>
</g>
</svg>
